<svg width="50" height="29" viewBox="0 0 50 29" fill="none" xmlns="http://www.w3.org/2000/svg">
<path d="M20.2568 0.00663753C21.2961 -0.00783513 22.0418 -0.0214178 23.0778 0.229516C24.4855 0.570551 25.8227 1.22063 27.1145 1.86084C29.1923 2.8907 31.2406 4.0074 33.3398 4.99273C34.7535 5.64986 36.1609 5.73217 37.6341 5.22704C38.5004 4.92994 39.3904 4.21944 40.2816 4.64523C40.6813 4.83345 40.9862 5.17753 41.1249 5.59702C41.6719 7.24133 39.7267 7.94062 38.5386 8.3276C37.5913 8.64355 36.5988 8.80334 35.6002 8.80074C32.8116 8.81982 31.2729 7.73192 28.885 6.52163C28.074 6.08159 27.178 5.66752 26.3678 5.22421C24.0717 3.96799 21.8606 2.95104 19.197 3.72321C17.6532 4.17075 16.0136 5.04602 14.5587 5.7793L12.4732 6.82229C11.9772 7.07115 11.4706 7.36045 10.9371 7.52893C9.51398 7.97832 8.20461 6.31672 9.06421 5.07118C9.37452 4.62156 9.69693 4.55966 10.1399 4.30702C10.811 3.9242 11.5234 3.61701 12.2096 3.26209C14.0906 2.34757 15.9269 1.31437 17.8833 0.568177C18.6154 0.289486 19.4918 0.163833 20.2568 0.00663753Z" fill="#2563EB"/>
<path d="M43.4784 18.0389C44.2601 17.3177 45.0341 16.9231 46.1355 16.9694C46.9174 17.0023 47.6086 17.2572 48.2254 17.7376C51.1023 19.9782 49.6994 25.3987 45.7539 25.0849C44.7104 25.002 44.2533 24.7144 43.5227 24.0047C43.5886 24.6243 43.5665 25.3727 43.5671 26.0052C43.5676 26.6103 43.5933 27.3984 43.5092 27.9849C43.458 28.0358 43.4752 28.0311 43.4135 28.0576C42.9253 28.0177 42.0083 28.0446 41.488 28.0434C41.5485 27.6274 41.5312 27.0718 41.5308 26.6403L41.5243 24.4776C41.5171 22.0446 41.5029 19.5803 41.5292 17.1493C41.8252 17.0932 43.1626 17.0274 43.3998 17.1391C43.447 17.4584 43.4608 17.7152 43.4784 18.0389ZM43.5152 19.9469C43.489 20.6704 43.5063 21.4384 43.526 22.1632C44.0039 22.8771 44.6413 23.3218 45.5204 23.304C46.1014 23.3119 46.6334 23.2686 47.1323 22.7583C48.3114 21.5523 47.8774 19.0029 45.976 18.787C45.9576 18.789 45.9392 18.791 45.9209 18.793C44.9851 18.8321 44.4791 18.8814 43.7919 19.6279C43.6962 19.7312 43.6039 19.8375 43.5152 19.9469Z" fill="#2563EB"/>
<path d="M43.5227 24.0047C43.5886 24.6243 43.5665 25.3727 43.5671 26.0052C43.5676 26.6103 43.5933 27.3984 43.5092 27.9849C43.458 28.0358 43.4752 28.0311 43.4135 28.0576C43.4529 27.3211 43.3381 24.508 43.5227 24.0047Z" fill="#2563EB"/>
<path d="M41.5292 17.1493C41.8252 17.0932 43.1626 17.0274 43.3998 17.1391C43.0779 17.2483 41.8891 17.2212 41.5292 17.1493Z" fill="#2563EB"/>
<path d="M21.642 17.0416C22.7936 16.8576 23.5974 17.4703 24.3777 18.1923C24.3853 17.8455 24.3847 17.4985 24.3763 17.1517C25.0939 17.0727 25.6557 17.1638 26.2906 17.1C26.3627 18.9439 26.2444 20.8723 26.2851 22.7237C26.3001 23.4037 26.3294 24.2568 26.276 24.9262C25.5837 24.943 25.1648 24.946 24.4622 24.93C24.3427 24.7804 24.3643 24.1896 24.3554 23.9582C24.2659 24.0779 24.1847 24.1676 24.0848 24.2793C23.9144 24.423 23.7131 24.6044 23.5245 24.719C22.3637 25.4244 20.693 25.2505 19.6475 24.4245C18.8204 23.7624 18.2893 22.7995 18.1706 21.7467C17.8931 19.3437 19.118 17.2879 21.642 17.0416ZM22.5868 23.3507C23.2597 23.2683 23.7768 22.8334 24.1781 22.3158C24.2166 22.2658 24.2529 22.2143 24.2869 22.1612C24.3194 21.5214 24.3159 20.6337 24.2915 19.9852C23.8605 19.4001 23.3178 18.96 22.5766 18.8228C22.45 18.7994 22.0178 18.7913 21.9003 18.8258C19.1829 19.0354 19.465 23.7901 22.5868 23.3507Z" fill="#2563EB"/>
<path d="M31.5413 16.9629C33.1162 16.8141 33.6154 17.1871 34.6705 18.262C35.4765 17.3847 35.9851 17.0162 37.2582 16.9442C37.6247 16.9235 37.7876 17.0353 38.1088 17.0985C40.0455 17.4796 40.1358 19.7474 40.1448 21.3235C40.169 22.4924 40.1125 23.7249 40.1079 24.9314C39.5679 24.9271 38.6695 24.8956 38.1607 24.9479C38.1722 24.7657 38.1753 24.5717 38.1716 24.3884C38.142 22.9284 38.2471 21.4337 38.1174 19.9808C38.0681 19.4284 37.7032 18.7994 37.0968 18.7779C36.5808 18.7596 36.0104 18.738 35.6108 19.1249C34.9341 19.7503 35.0015 20.553 35.0167 21.3842C35.0197 22.0484 35.0433 22.7391 35.0116 23.4011C35.0402 23.7666 35.0039 24.5721 34.9777 24.9285C34.4056 24.931 33.5336 24.8923 32.9928 24.9443C32.9483 23.3193 33.0373 21.6753 32.9717 20.0504C32.923 18.8445 31.792 18.4946 30.7997 18.9171C29.5651 19.4429 29.7619 20.8262 29.7613 21.9146L29.7591 24.9254C29.4888 24.9206 29.1678 24.964 28.871 24.9646C28.5067 24.9654 28.1486 24.92 27.8007 24.9351C27.8307 22.7436 27.7792 20.5389 27.8001 18.3465C27.8037 17.9654 27.7758 17.5848 27.8137 17.2047C27.9687 17.1125 29.3171 17.1481 29.661 17.1246C29.7109 17.4515 29.7213 17.6895 29.7266 18.0239C30.4171 17.5035 30.4776 17.1701 31.5413 16.9629Z" fill="#2563EB"/>
<path d="M3.70084 13.8438C4.43427 13.7451 5.7665 13.9466 6.41925 14.3024C7.42893 14.8529 7.93146 15.7028 8.27405 16.7482C7.6354 16.7819 7.02607 16.9658 6.39127 17.0124C6.2084 17.0348 6.11407 16.8642 6.05729 16.7105C5.67684 15.6808 4.77241 15.5976 3.79718 15.6887C3.06546 15.7571 2.38302 16.2997 2.41226 17.1229C2.44573 18.0636 3.35461 18.2949 4.10459 18.4791C5.99554 18.9249 8.11515 19.2077 8.21861 21.6214C8.2984 23.4846 6.94391 24.7786 5.17208 25.0806C4.80277 25.1435 4.4198 25.1471 4.04789 25.1579C1.7794 24.8765 0.675762 24.0831 0 21.8453C0.42609 21.7685 1.51859 21.5248 1.98446 21.5441C2.05556 21.547 2.17409 22.0792 2.30546 22.2785C2.5132 22.5937 2.63655 22.7886 2.9781 23.0146C3.53452 23.3828 4.27597 23.4506 4.91803 23.3232C5.41114 23.2253 5.86358 22.9678 6.13693 22.5378C6.30132 22.2792 6.39914 21.9552 6.3146 21.6488C6.03651 20.6409 4.90163 20.5785 4.0919 20.3856C3.33309 20.2047 2.39578 20.0396 1.75817 19.6385C1.08545 19.2152 0.628782 18.536 0.511294 17.7595C0.392692 16.9761 0.555825 15.9794 1.03981 15.3352C1.75921 14.3775 2.5794 14.0474 3.70084 13.8438Z" fill="#2563EB"/>
<path d="M9.62326 13.5481C10.2735 13.5612 10.9239 13.5612 11.5742 13.5482L11.5943 16.5024C11.5952 16.7642 11.6206 17.5639 11.5909 17.7725C11.5954 17.9097 11.5709 17.9548 11.6383 18.0415C12.5029 17.2762 13.0968 16.9172 14.2901 16.9907C16.8325 17.1475 16.9981 19.0689 17.0079 21.1018L17.018 23.5495C17.0198 23.939 17.0064 24.5534 17.0396 24.9298C16.4003 24.9307 15.7374 24.9223 15.1002 24.9343L15.1062 21.8586C15.1054 20.4009 15.3463 18.6649 13.2668 18.7751C12.4436 18.8186 11.6881 19.4215 11.5929 20.2387C11.4534 21.436 11.5805 22.7619 11.5397 23.9758C11.5293 24.2858 11.5344 24.6332 11.5446 24.9335C10.932 24.9315 10.2243 24.9118 9.6194 24.9329C9.55861 24.7689 9.63142 24.4932 9.59899 24.3128C9.41062 23.2647 9.48291 22.2266 9.5261 21.1683C9.54429 20.7214 9.52261 20.2183 9.58548 19.7705C9.63973 19.4942 9.61242 17.988 9.59104 17.657C9.53805 17.324 9.48513 16.9587 9.53605 16.621C9.68923 15.6058 9.57271 14.5664 9.62326 13.5481Z" fill="#2563EB"/>
<path d="M9.62326 13.5481C10.2735 13.5612 10.9239 13.5612 11.5742 13.5482L11.5943 16.5024C11.5952 16.7642 11.6206 17.5639 11.5909 17.7725C11.5647 17.6998 11.4944 17.6432 11.4941 17.5459C11.4895 16.2644 11.4817 14.9379 11.4822 13.6596C10.8982 13.646 10.2743 13.6302 9.70011 13.7236C9.67881 14.3432 9.7472 17.239 9.59104 17.657C9.53805 17.324 9.48513 16.9587 9.53605 16.621C9.68923 15.6058 9.57271 14.5664 9.62326 13.5481Z" fill="#2563EB"/>
<path d="M9.58548 19.7705C9.75818 20.046 9.58117 23.5718 9.66415 24.1938C9.67959 24.3095 9.65517 24.8241 9.6194 24.9329C9.55861 24.7689 9.63142 24.4932 9.59899 24.3128C9.41062 23.2647 9.48291 22.2266 9.5261 21.1683C9.54429 20.7214 9.52261 20.2183 9.58548 19.7705Z" fill="#2563EB"/>
</svg>
